<svg id="svg" version="1.1" xmlns="http://www.w3.org/2000/svg" xmlns:xlink="http://www.w3.org/1999/xlink" width="400" height="409.04761904761904" viewBox="0, 0, 400,409.04761904761904"><g id="svgg"><path id="path0" d="M29.379 139.711 C 29.271 139.992,29.231 143.817,29.291 148.211 L 29.400 156.200 32.100 156.318 L 34.800 156.437 34.800 153.618 L 34.800 150.800 37.753 150.800 C 41.104 150.800,41.184 150.886,41.195 154.500 L 41.200 156.400 43.800 156.400 L 46.400 156.400 46.400 147.800 L 46.400 139.200 43.800 139.200 C 41.206 139.200,41.200 139.203,41.200 140.344 C 41.200 140.973,41.086 142.323,40.946 143.344 L 40.691 145.200 37.746 145.200 L 34.800 145.200 34.800 142.200 L 34.800 139.200 32.187 139.200 C 30.436 139.200,29.510 139.368,29.379 139.711 M49.200 142.000 L 49.200 144.800 51.800 144.800 L 54.400 144.800 54.400 150.600 L 54.400 156.400 56.989 156.400 L 59.578 156.400 59.689 150.700 L 59.800 145.000 62.500 144.882 L 65.200 144.763 65.200 141.982 L 65.200 139.200 57.200 139.200 L 49.200 139.200 49.200 142.000 M68.000 147.818 L 68.000 156.437 70.700 156.318 L 73.400 156.200 73.600 152.200 L 73.800 148.200 75.600 151.097 C 77.783 154.609,77.440 154.609,79.608 151.100 L 81.400 148.200 81.600 152.200 L 81.800 156.200 84.500 156.318 L 87.200 156.437 87.200 147.818 L 87.200 139.200 84.429 139.200 L 81.658 139.200 80.166 141.700 C 77.544 146.091,77.762 146.059,75.504 142.399 L 73.530 139.200 70.765 139.200 L 68.000 139.200 68.000 147.818 M90.000 147.810 L 90.000 156.419 96.700 156.310 L 103.400 156.200 103.400 153.600 L 103.400 151.000 99.300 150.886 L 95.200 150.772 95.200 144.986 L 95.200 139.200 92.600 139.200 L 90.000 139.200 90.000 147.810 M192.710 145.500 L 192.600 151.800 188.900 151.915 L 185.200 152.030 185.200 154.215 L 185.200 156.400 191.200 156.400 L 197.200 156.400 197.200 147.800 L 197.200 139.200 195.010 139.200 L 192.820 139.200 192.710 145.500 M200.088 144.472 L 200.200 149.743 204.819 149.644 C 210.434 149.522,211.690 149.767,211.521 150.949 C 211.405 151.766,211.169 151.804,205.700 151.911 L 200.000 152.022 200.000 154.211 L 200.000 156.400 208.012 156.400 L 216.023 156.400 215.912 151.100 L 215.800 145.800 210.100 145.689 L 204.400 145.578 204.400 144.589 L 204.400 143.600 210.200 143.600 L 216.000 143.600 216.000 141.400 L 216.000 139.200 207.988 139.200 L 199.977 139.200 200.088 144.472 M306.400 147.800 L 306.400 156.400 314.400 156.400 L 322.400 156.400 322.400 154.200 L 322.400 152.000 316.600 152.000 L 310.800 152.000 310.800 147.800 L 310.800 143.600 316.600 143.600 L 322.400 143.600 322.400 141.400 L 322.400 139.200 314.400 139.200 L 306.400 139.200 306.400 147.800 M325.073 139.460 C 324.643 139.890,325.280 149.372,325.761 149.694 C 326.002 149.856,328.598 149.991,331.528 149.994 C 336.823 150.000,336.855 150.006,336.728 150.900 C 336.604 151.775,336.441 151.805,330.800 152.000 L 325.000 152.200 325.000 154.200 L 325.000 156.200 333.112 156.308 L 341.223 156.417 341.112 151.108 L 341.000 145.800 335.300 145.689 L 329.600 145.578 329.600 144.589 L 329.600 143.600 335.400 143.600 L 341.200 143.600 341.200 141.400 L 341.200 139.200 333.267 139.200 C 328.903 139.200,325.216 139.317,325.073 139.460 M344.000 144.357 L 344.000 149.513 345.051 149.777 C 345.629 149.922,348.194 150.010,350.751 149.972 C 355.395 149.903,355.400 149.904,355.400 150.852 C 355.400 151.800,355.399 151.800,349.700 151.911 L 344.000 152.022 344.000 154.211 L 344.000 156.400 352.000 156.400 L 360.000 156.400 360.000 151.000 L 360.000 145.600 354.172 145.600 C 348.357 145.600,348.345 145.598,348.472 144.700 C 348.597 143.821,348.732 143.797,354.300 143.689 L 360.000 143.578 360.000 141.389 L 360.000 139.200 352.000 139.200 L 344.000 139.200 344.000 144.357 M287.600 166.336 C 287.600 167.181,287.785 169.296,288.012 171.036 C 288.239 172.776,288.963 180.680,289.620 188.600 C 292.200 219.651,292.807 226.733,293.186 230.200 C 293.402 232.180,293.941 238.480,294.384 244.200 C 295.361 256.834,295.554 258.417,296.141 258.598 C 296.394 258.675,298.670 259.301,301.200 259.989 C 303.730 260.677,307.600 261.760,309.800 262.395 C 312.000 263.030,316.860 264.385,320.600 265.408 C 324.340 266.430,328.544 267.611,329.942 268.033 C 333.298 269.045,333.927 269.014,339.043 267.574 C 341.439 266.899,345.650 265.716,348.400 264.946 C 351.150 264.175,355.200 263.027,357.400 262.394 C 359.600 261.762,363.624 260.650,366.343 259.922 C 372.290 258.331,371.694 259.455,372.558 248.200 C 372.929 243.360,373.582 235.710,374.007 231.200 C 374.433 226.690,375.058 219.490,375.396 215.200 C 375.735 210.910,376.368 203.530,376.804 198.800 C 377.723 188.817,379.148 172.385,379.483 167.900 L 379.714 164.800 333.657 164.800 L 287.600 164.800 287.600 166.336 M362.654 185.700 C 362.523 186.855,362.296 189.568,362.151 191.729 L 361.886 195.659 350.935 201.129 L 339.983 206.600 350.292 206.800 L 360.600 207.000 360.577 208.600 C 360.554 210.254,359.110 228.334,358.362 236.350 C 357.725 243.169,358.964 242.127,347.800 245.237 C 332.712 249.442,334.109 249.199,330.600 248.227 C 329.280 247.861,325.860 246.927,323.000 246.152 C 320.140 245.376,316.990 244.498,316.000 244.200 C 315.010 243.903,313.190 243.378,311.956 243.035 L 309.711 242.410 309.434 240.105 C 309.117 237.472,308.004 225.655,308.002 224.900 C 308.000 224.522,309.495 224.400,314.146 224.400 L 320.291 224.400 320.646 228.900 L 321.000 233.400 323.200 234.110 C 328.533 235.832,333.055 236.854,334.400 236.640 C 336.180 236.357,345.648 233.686,345.953 233.380 C 346.167 233.166,346.311 231.749,347.035 222.700 L 347.315 219.200 327.457 219.200 C 311.843 219.200,307.598 219.093,307.592 218.700 C 307.587 218.425,307.329 215.689,307.017 212.620 C 306.706 209.551,306.524 206.923,306.613 206.780 C 306.701 206.636,311.579 204.107,317.451 201.160 L 328.129 195.800 316.865 195.694 C 310.669 195.635,305.587 195.545,305.570 195.494 C 305.391 194.929,304.567 184.122,304.686 183.900 C 304.775 183.735,317.907 183.600,333.870 183.600 L 362.892 183.600 362.654 185.700 " stroke="none" fill="#065f99" fill-rule="evenodd"></path><path id="path1" d="M0.000 204.400 L 0.000 408.800 200.000 408.800 L 400.000 408.800 400.000 204.400 L 400.000 0.000 200.000 0.000 L 0.000 0.000 0.000 204.400 M35.117 142.100 L 35.234 145.200 38.000 145.200 L 40.766 145.200 40.883 142.100 L 41.000 139.000 43.800 139.000 L 46.600 139.000 46.600 147.800 L 46.600 156.600 43.700 156.718 L 40.800 156.835 40.800 154.018 L 40.800 151.200 38.018 151.200 L 35.237 151.200 35.118 153.900 L 35.000 156.600 32.000 156.600 L 29.000 156.600 28.892 148.210 C 28.759 137.964,28.494 138.737,32.094 138.882 L 35.000 139.000 35.117 142.100 M65.517 141.881 L 65.634 144.763 62.917 144.881 L 60.200 145.000 60.000 150.800 L 59.800 156.600 56.900 156.718 L 54.000 156.835 54.000 150.818 L 54.000 144.800 51.400 144.800 L 48.800 144.800 48.800 142.067 C 48.800 138.528,48.153 138.768,57.375 138.892 L 65.400 139.000 65.517 141.881 M75.585 142.082 C 77.680 145.639,77.636 145.612,78.533 143.900 C 78.907 143.185,79.718 141.790,80.333 140.800 L 81.453 139.000 84.426 139.000 L 87.400 139.000 87.400 147.800 L 87.400 156.600 84.512 156.717 C 81.168 156.853,81.276 156.996,81.102 152.200 L 81.000 149.400 79.471 151.900 C 77.581 154.990,77.559 154.989,75.710 151.769 L 74.200 149.138 74.000 152.869 L 73.800 156.600 70.800 156.600 L 67.800 156.600 67.692 148.210 C 67.559 137.968,67.297 138.737,70.879 138.882 L 73.769 139.000 75.585 142.082 M95.498 144.000 C 95.642 151.363,95.267 150.800,100.025 150.800 L 104.035 150.800 103.918 153.700 L 103.800 156.600 96.700 156.709 L 89.600 156.818 89.600 147.792 L 89.600 138.765 92.500 138.882 L 95.400 139.000 95.498 144.000 M197.341 141.860 C 197.667 145.716,197.666 149.287,197.338 153.500 L 197.081 156.800 190.922 156.800 L 184.762 156.800 184.881 154.300 L 185.000 151.800 188.700 151.685 L 192.400 151.570 192.400 145.452 C 192.400 138.466,192.269 138.800,195.008 138.800 L 197.083 138.800 197.341 141.860 M216.200 141.400 L 216.200 143.800 210.300 143.911 C 204.731 144.015,204.400 144.066,204.400 144.811 C 204.400 145.561,204.694 145.600,210.411 145.600 L 216.423 145.600 216.311 151.100 L 216.200 156.600 208.000 156.600 L 199.800 156.600 199.681 154.100 L 199.562 151.600 205.381 151.600 C 210.933 151.600,211.200 151.563,211.200 150.800 C 211.200 150.037,210.933 150.000,205.400 150.000 L 199.600 150.000 199.600 144.667 C 199.600 141.733,199.724 139.210,199.875 139.059 C 200.026 138.908,203.761 138.833,208.175 138.892 L 216.200 139.000 216.200 141.400 M322.557 139.433 C 323.984 143.150,322.903 144.000,316.753 144.000 L 311.200 144.000 311.200 147.800 L 311.200 151.600 316.792 151.600 C 323.106 151.600,323.014 151.547,322.728 155.038 L 322.600 156.600 314.300 156.708 L 306.000 156.816 306.000 147.808 L 306.000 138.800 314.157 138.800 C 321.227 138.800,322.347 138.884,322.557 139.433 M341.400 141.400 L 341.400 143.800 335.500 143.911 C 329.931 144.015,329.600 144.066,329.600 144.811 C 329.600 145.561,329.894 145.600,335.611 145.600 L 341.623 145.600 341.511 151.100 L 341.400 156.600 333.100 156.708 L 324.800 156.816 324.800 154.208 L 324.800 151.600 330.600 151.600 C 336.133 151.600,336.400 151.563,336.400 150.800 C 336.400 150.037,336.133 150.000,330.600 150.000 L 324.800 150.000 324.800 144.392 L 324.800 138.784 333.100 138.892 L 341.400 139.000 341.400 141.400 M360.200 141.400 L 360.200 143.800 354.500 143.911 C 349.158 144.015,348.800 144.071,348.800 144.800 C 348.800 145.529,349.158 145.585,354.500 145.689 L 360.200 145.800 360.200 151.200 L 360.200 156.600 351.881 156.708 L 343.561 156.816 343.681 154.308 L 343.800 151.800 349.500 151.689 C 354.869 151.584,355.200 151.532,355.200 150.789 C 355.200 150.040,354.906 150.000,349.400 150.000 L 343.600 150.000 343.600 144.392 L 343.600 138.784 351.900 138.892 L 360.200 139.000 360.200 141.400 M113.047 167.300 C 112.912 168.895,112.444 174.700,112.008 180.200 C 111.573 185.700,111.028 191.910,110.798 194.000 C 110.569 196.090,110.037 202.210,109.618 207.600 C 109.198 212.990,108.578 220.190,108.239 223.600 C 107.702 229.012,106.709 240.831,106.172 248.200 C 106.076 249.520,105.793 252.432,105.544 254.671 L 105.090 258.742 102.045 259.557 C 96.822 260.955,94.740 261.531,90.200 262.835 C 87.780 263.530,83.640 264.693,81.000 265.420 C 78.360 266.147,74.490 267.226,72.400 267.818 C 70.310 268.410,68.240 268.974,67.800 269.071 C 67.360 269.167,65.380 268.805,63.400 268.264 C 52.705 265.345,37.227 261.044,33.200 259.872 L 28.600 258.534 27.551 245.767 C 26.974 238.745,26.299 231.110,26.052 228.800 C 25.805 226.490,25.419 221.990,25.196 218.800 C 24.973 215.610,24.523 210.390,24.196 207.200 C 23.869 204.010,23.144 195.753,22.584 188.850 C 22.024 181.948,21.301 173.789,20.978 170.720 C 20.655 167.651,20.493 164.973,20.619 164.770 C 20.756 164.547,39.212 164.400,67.071 164.400 L 113.294 164.400 113.047 167.300 M380.000 164.900 C 380.000 166.124,378.730 181.549,378.198 186.800 C 377.874 189.990,377.249 197.370,376.807 203.200 C 376.366 209.030,375.827 215.240,375.608 217.000 C 375.389 218.760,374.848 224.970,374.404 230.800 C 373.960 236.630,373.339 243.830,373.022 246.800 C 372.706 249.770,372.329 253.679,372.183 255.486 C 371.978 258.038,371.772 258.817,371.260 258.974 C 370.897 259.085,368.260 259.804,365.400 260.572 C 362.540 261.340,358.580 262.433,356.600 263.001 C 354.620 263.569,351.110 264.558,348.800 265.200 C 346.490 265.842,342.350 266.997,339.600 267.766 C 333.508 269.471,334.099 269.470,328.000 267.778 C 325.250 267.015,321.020 265.853,318.600 265.195 C 316.180 264.537,312.310 263.456,310.000 262.792 C 307.690 262.128,303.485 260.968,300.655 260.214 C 294.525 258.581,295.405 259.617,294.865 253.400 C 294.617 250.540,294.228 246.310,294.000 244.000 C 293.773 241.690,293.142 234.400,292.598 227.800 C 291.662 216.447,291.258 211.776,289.778 195.200 C 289.209 188.817,287.239 165.411,287.212 164.700 C 287.205 164.535,308.080 164.400,333.600 164.400 C 370.453 164.400,380.000 164.503,380.000 164.900 M246.605 165.300 C 246.512 165.575,246.242 168.140,246.006 171.000 C 245.769 173.860,245.127 181.420,244.578 187.800 C 244.030 194.180,243.226 203.630,242.791 208.800 C 242.355 213.970,241.562 223.060,241.028 229.000 C 240.494 234.940,239.762 243.670,239.401 248.400 C 239.041 253.130,238.596 257.373,238.413 257.830 C 238.051 258.735,238.699 258.524,222.600 262.998 C 217.320 264.466,211.560 266.086,209.800 266.598 C 208.040 267.111,205.181 267.912,203.447 268.379 L 200.294 269.227 194.647 267.643 C 191.541 266.771,185.940 265.213,182.200 264.179 C 178.460 263.145,172.430 261.450,168.800 260.412 L 162.200 258.525 161.716 253.363 C 161.450 250.523,160.597 240.730,159.819 231.600 C 159.042 222.470,158.317 214.370,158.209 213.600 C 158.100 212.830,157.731 208.510,157.389 204.000 C 157.047 199.490,156.506 193.190,156.187 190.000 C 155.868 186.810,155.337 180.690,155.007 176.400 C 154.678 172.110,154.299 167.745,154.166 166.700 L 153.925 164.800 200.350 164.800 C 237.314 164.800,246.740 164.902,246.605 165.300 M38.211 184.382 C 38.082 184.591,38.070 185.176,38.186 185.682 C 38.302 186.187,38.667 190.020,38.998 194.200 C 39.329 198.380,39.871 205.220,40.202 209.400 C 40.533 213.580,40.896 217.405,41.009 217.900 L 41.215 218.800 61.059 218.800 L 80.903 218.800 80.658 221.500 C 80.524 222.985,80.295 226.224,80.150 228.698 C 79.827 234.211,80.522 233.672,70.200 236.409 L 67.000 237.257 60.833 235.641 C 53.495 233.719,53.908 234.051,53.714 229.915 C 53.450 224.279,54.095 224.800,47.379 224.800 L 41.572 224.800 41.783 226.700 C 41.899 227.745,42.195 231.293,42.439 234.585 C 42.684 237.877,43.028 240.947,43.203 241.408 C 43.495 242.175,50.598 244.590,56.200 245.827 C 56.860 245.973,59.528 246.701,62.129 247.444 L 66.858 248.796 69.729 248.038 C 71.308 247.622,75.480 246.462,79.000 245.460 C 82.520 244.459,86.601 243.342,88.070 242.979 L 90.739 242.318 90.985 239.259 C 91.120 237.577,91.493 233.590,91.814 230.400 C 92.135 227.210,92.669 220.953,93.000 216.496 C 93.332 212.039,93.647 208.169,93.701 207.896 C 93.779 207.506,89.422 207.400,73.400 207.400 C 62.180 207.400,52.803 207.271,52.561 207.114 C 52.320 206.957,52.005 205.067,51.861 202.914 C 51.716 200.761,51.485 198.235,51.347 197.300 L 51.095 195.600 72.896 195.600 L 94.698 195.600 94.926 194.100 C 95.052 193.275,95.280 190.665,95.432 188.300 L 95.709 184.000 67.078 184.000 C 49.342 184.000,38.357 184.145,38.211 184.382 M186.687 184.300 C 186.599 184.465,186.554 195.914,186.586 209.742 C 186.636 230.789,186.555 234.919,186.093 235.096 C 185.790 235.213,183.980 234.842,182.071 234.271 C 178.307 233.147,169.506 230.800,169.055 230.800 C 168.902 230.800,168.827 233.176,168.888 236.080 L 169.000 241.359 174.400 242.825 C 181.563 244.770,189.502 246.942,193.192 247.968 C 194.838 248.426,196.323 248.800,196.492 248.800 C 196.661 248.800,196.800 234.220,196.800 216.400 L 196.800 184.000 191.824 184.000 C 189.087 184.000,186.775 184.135,186.687 184.300 M204.000 203.731 L 204.000 223.461 205.300 223.282 C 206.015 223.183,209.658 222.597,213.395 221.979 C 217.132 221.362,220.228 220.894,220.274 220.940 C 220.523 221.190,219.050 233.836,218.749 234.026 C 218.552 234.151,215.154 235.141,211.197 236.226 L 204.004 238.200 204.002 243.500 C 204.001 246.415,204.045 248.797,204.100 248.793 C 204.155 248.789,205.460 248.441,207.000 248.019 C 229.668 241.803,227.983 242.452,227.994 239.935 C 227.997 239.129,228.354 234.989,228.787 230.735 C 230.802 210.942,230.900 209.039,229.887 209.417 C 229.367 209.611,215.346 211.599,214.492 211.600 C 214.094 211.600,214.008 209.721,214.092 202.900 L 214.200 194.200 223.064 194.092 L 231.927 193.985 232.147 192.092 C 232.268 191.052,232.480 188.805,232.618 187.100 L 232.868 184.000 218.434 184.000 L 204.000 184.000 204.000 203.731 M304.803 184.700 C 304.807 185.595,305.524 192.134,305.833 194.094 L 306.068 195.588 317.478 195.694 L 328.888 195.800 317.807 201.371 L 306.726 206.943 306.955 208.971 C 307.081 210.087,307.303 212.755,307.447 214.900 L 307.710 218.800 327.706 218.800 L 347.703 218.800 347.462 221.500 C 347.329 222.985,347.102 226.309,346.957 228.887 L 346.693 233.575 345.046 234.177 C 343.588 234.711,340.393 235.597,335.400 236.853 C 333.509 237.329,333.333 237.302,326.528 235.487 C 319.950 233.734,320.401 234.087,320.396 230.676 C 320.393 229.094,320.280 227.125,320.143 226.300 L 319.895 224.800 314.130 224.800 L 308.364 224.800 308.568 226.100 C 308.680 226.815,308.984 230.506,309.243 234.302 C 309.503 238.098,309.914 241.466,310.157 241.786 C 310.575 242.334,313.235 243.153,324.600 246.229 C 327.240 246.944,330.379 247.807,331.576 248.148 C 333.841 248.793,337.547 248.023,347.800 244.778 C 349.120 244.360,351.411 243.741,352.892 243.402 C 357.767 242.287,357.453 242.638,357.773 237.930 C 357.928 235.659,358.305 231.370,358.611 228.400 C 358.917 225.430,359.352 220.570,359.579 217.600 C 359.805 214.630,360.100 211.165,360.235 209.900 L 360.479 207.600 349.606 207.600 C 341.688 207.600,338.774 207.477,338.884 207.147 C 338.967 206.898,344.067 204.153,350.218 201.047 L 361.400 195.400 361.862 191.400 C 362.116 189.200,362.341 186.635,362.362 185.700 L 362.400 184.000 333.600 184.000 C 306.437 184.000,304.800 184.040,304.803 184.700 " stroke="none" fill="#f3f3f3" fill-rule="evenodd"></path><path id="path2" d="M20.939 167.500 C 21.080 168.985,21.468 173.440,21.803 177.400 C 23.055 192.212,24.848 212.889,25.619 221.400 C 26.057 226.240,26.780 234.700,27.225 240.200 C 27.671 245.700,28.252 252.070,28.517 254.355 L 29.000 258.509 35.200 260.271 C 42.368 262.307,54.075 265.559,63.481 268.127 L 67.162 269.132 71.081 268.009 C 73.236 267.391,79.950 265.507,86.000 263.821 C 98.981 260.205,104.829 258.513,104.978 258.332 C 105.037 258.259,105.381 254.690,105.743 250.400 C 106.570 240.575,107.439 230.537,108.218 221.800 C 108.552 218.060,109.448 207.530,110.210 198.400 C 110.971 189.270,111.679 181.350,111.782 180.800 C 111.886 180.250,112.160 177.010,112.392 173.600 C 112.624 170.190,112.909 166.815,113.025 166.100 L 113.236 164.800 66.960 164.800 L 20.684 164.800 20.939 167.500 M95.974 184.900 C 95.959 185.615,95.734 188.270,95.474 190.800 L 95.000 195.400 73.263 195.503 L 51.526 195.607 51.779 199.503 C 51.918 201.647,52.132 204.255,52.253 205.300 L 52.475 207.200 73.238 207.200 C 91.441 207.200,94.000 207.274,94.000 207.801 C 94.000 208.131,93.651 212.136,93.225 216.701 C 92.799 221.265,92.153 228.780,91.790 233.400 C 91.009 243.336,91.791 242.261,83.800 244.379 C 80.280 245.312,76.666 246.316,75.768 246.610 C 74.870 246.904,72.488 247.531,70.474 248.004 L 66.813 248.864 59.907 247.012 C 43.384 242.583,42.804 242.376,42.788 240.909 C 42.782 240.299,42.516 236.920,42.197 233.400 C 41.878 229.880,41.613 226.415,41.609 225.700 L 41.600 224.400 47.376 224.400 C 54.129 224.400,53.626 224.011,53.902 229.434 L 54.115 233.600 55.757 234.037 C 56.661 234.277,58.930 234.915,60.800 235.455 C 66.870 237.209,66.714 237.217,75.258 234.707 L 79.516 233.457 79.742 231.628 C 79.867 230.623,80.089 227.444,80.237 224.565 L 80.506 219.331 70.188 219.065 C 64.513 218.919,55.579 218.800,50.335 218.800 C 42.980 218.800,40.797 218.686,40.788 218.300 C 40.768 217.418,39.265 199.647,38.574 192.112 C 38.206 188.103,38.011 184.548,38.140 184.212 C 38.348 183.671,41.702 183.600,67.187 183.600 L 96.000 183.600 95.974 184.900 " stroke="none" fill="#e84b1e" fill-rule="evenodd"></path><path id="path3" d="M154.166 166.700 C 154.299 167.745,154.678 172.110,155.007 176.400 C 155.337 180.690,155.868 186.810,156.187 190.000 C 156.506 193.190,157.047 199.490,157.389 204.000 C 157.731 208.510,158.100 212.830,158.209 213.600 C 158.317 214.370,159.042 222.470,159.819 231.600 C 160.597 240.730,161.450 250.523,161.716 253.363 L 162.200 258.525 168.800 260.412 C 172.430 261.450,178.460 263.145,182.200 264.179 C 185.940 265.213,191.541 266.771,194.647 267.643 L 200.294 269.227 203.447 268.379 C 205.181 267.912,208.040 267.111,209.800 266.598 C 211.560 266.086,217.320 264.466,222.600 262.998 C 238.699 258.524,238.051 258.735,238.413 257.830 C 238.596 257.373,239.041 253.130,239.401 248.400 C 239.762 243.670,240.494 234.940,241.028 229.000 C 241.562 223.060,242.355 213.970,242.791 208.800 C 243.226 203.630,244.030 194.180,244.578 187.800 C 245.127 181.420,245.769 173.860,246.006 171.000 C 246.242 168.140,246.512 165.575,246.605 165.300 C 246.740 164.902,237.314 164.800,200.350 164.800 L 153.925 164.800 154.166 166.700 M45.526 183.900 C 49.555 183.965,56.035 183.965,59.926 183.899 C 63.817 183.834,60.520 183.780,52.600 183.781 C 44.680 183.781,41.497 183.834,45.526 183.900 M196.800 216.400 C 196.800 234.220,196.661 248.800,196.492 248.800 C 196.323 248.800,194.838 248.426,193.192 247.968 C 189.502 246.942,181.563 244.770,174.400 242.825 L 169.000 241.359 168.888 236.080 C 168.818 232.760,168.925 230.800,169.176 230.800 C 169.655 230.800,177.238 232.846,182.071 234.279 C 183.980 234.845,185.790 235.213,186.093 235.096 C 186.555 234.919,186.636 230.789,186.586 209.742 C 186.554 195.914,186.599 184.465,186.687 184.300 C 186.775 184.135,189.087 184.000,191.824 184.000 L 196.800 184.000 196.800 216.400 M232.618 187.100 C 232.480 188.805,232.268 191.052,232.147 192.092 L 231.927 193.985 223.064 194.092 L 214.200 194.200 214.092 202.900 C 214.008 209.721,214.094 211.600,214.492 211.600 C 215.346 211.599,229.367 209.611,229.887 209.417 C 230.900 209.039,230.802 210.942,228.787 230.735 C 228.354 234.989,227.997 239.129,227.994 239.935 C 227.983 242.452,229.668 241.803,207.000 248.019 C 205.460 248.441,204.155 248.789,204.100 248.793 C 204.045 248.797,204.001 246.415,204.002 243.500 L 204.004 238.200 211.197 236.226 C 215.154 235.141,218.552 234.151,218.749 234.026 C 219.050 233.836,220.523 221.190,220.274 220.940 C 220.228 220.894,217.132 221.362,213.395 221.979 C 209.658 222.597,206.015 223.183,205.300 223.282 L 204.000 223.461 204.000 203.731 L 204.000 184.000 218.434 184.000 L 232.868 184.000 232.618 187.100 M73.472 219.094 C 78.451 219.184,80.391 219.354,80.511 219.709 C 80.602 219.979,80.657 219.930,80.633 219.600 C 80.596 219.092,79.519 218.998,73.595 218.985 L 66.600 218.970 73.472 219.094 " stroke="none" fill="#ebc923" fill-rule="evenodd"></path><path id="path4" d="M28.986 139.293 C 28.874 139.583,28.832 143.596,28.892 148.210 L 29.000 156.600 32.000 156.600 L 35.000 156.600 35.118 153.917 L 35.236 151.234 38.118 151.097 L 41.000 150.959 37.900 150.879 L 34.800 150.800 34.800 153.618 L 34.800 156.437 32.100 156.318 L 29.400 156.200 29.400 147.800 L 29.400 139.400 32.083 139.282 L 34.766 139.164 34.910 142.183 L 35.054 145.203 35.027 142.101 L 35.000 139.000 32.094 138.882 C 29.970 138.796,29.134 138.907,28.986 139.293 M40.968 139.340 C 40.846 139.657,40.818 140.610,40.906 141.458 C 41.058 142.923,41.069 142.905,41.133 141.100 L 41.200 139.200 43.800 139.200 L 46.400 139.200 46.400 147.800 L 46.400 156.400 43.820 156.400 L 41.240 156.400 41.096 154.100 L 40.951 151.800 40.876 154.318 L 40.800 156.835 43.700 156.718 L 46.600 156.600 46.600 147.800 L 46.600 139.000 43.895 138.882 C 41.827 138.791,41.137 138.899,40.968 139.340 M48.970 139.334 C 48.854 139.637,48.823 141.035,48.902 142.442 L 49.046 145.000 49.123 142.100 L 49.200 139.200 57.182 139.200 L 65.165 139.200 65.313 142.100 L 65.461 145.000 65.430 142.000 L 65.400 139.000 57.291 138.892 C 50.702 138.804,49.142 138.887,48.970 139.334 M67.786 139.293 C 67.674 139.583,67.632 143.596,67.692 148.210 L 67.800 156.600 70.800 156.600 L 73.800 156.600 74.000 152.661 C 74.110 150.494,74.072 148.642,73.915 148.546 C 73.758 148.450,73.578 150.132,73.515 152.285 L 73.400 156.200 70.700 156.318 L 68.000 156.437 68.000 147.818 L 68.000 139.200 70.751 139.200 C 72.898 139.200,73.623 139.354,74.051 139.901 C 74.549 140.537,74.558 140.528,74.153 139.801 C 73.595 138.802,68.141 138.366,67.786 139.293 M81.325 139.284 C 81.105 139.568,80.798 140.070,80.644 140.400 C 80.489 140.730,80.663 140.595,81.030 140.100 C 81.610 139.319,82.060 139.200,84.449 139.200 L 87.200 139.200 87.200 147.818 L 87.200 156.437 84.500 156.318 L 81.800 156.200 81.600 152.213 C 81.409 148.403,81.372 148.271,80.771 149.213 C 79.679 150.927,79.501 151.436,80.356 150.400 L 81.182 149.400 81.197 152.600 C 81.217 156.799,81.272 156.865,84.636 156.720 L 87.400 156.600 87.400 147.800 L 87.400 139.000 84.562 138.884 C 82.600 138.803,81.601 138.927,81.325 139.284 M89.600 147.809 L 89.600 156.818 96.700 156.709 L 103.800 156.600 103.918 153.700 C 103.982 152.105,103.892 150.800,103.718 150.799 C 103.543 150.799,103.400 152.014,103.400 153.499 L 103.400 156.200 96.700 156.310 L 90.000 156.419 90.000 147.810 L 90.000 139.200 92.600 139.200 L 95.200 139.200 95.200 145.000 C 95.200 148.190,95.335 150.800,95.500 150.801 C 95.806 150.801,95.711 140.212,95.397 139.300 C 95.281 138.964,94.304 138.800,92.413 138.800 L 89.600 138.800 89.600 147.809 M192.667 139.067 C 192.520 139.213,192.400 142.087,192.400 145.452 L 192.400 151.570 188.700 151.685 L 185.000 151.800 184.881 154.300 L 184.762 156.800 191.081 156.711 L 197.400 156.622 191.300 156.501 L 185.200 156.379 185.200 154.205 L 185.200 152.030 188.900 151.915 L 192.600 151.800 192.710 145.520 L 192.820 139.239 195.110 139.095 L 197.400 138.951 195.167 138.876 C 193.938 138.834,192.813 138.920,192.667 139.067 M199.875 139.059 C 199.500 139.434,199.524 150.000,199.900 150.001 C 200.065 150.001,200.145 147.571,200.078 144.601 L 199.957 139.200 207.978 139.200 L 216.000 139.200 216.000 141.389 L 216.000 143.579 210.200 143.706 L 204.399 143.833 210.300 143.817 L 216.200 143.800 216.200 141.400 L 216.200 139.000 208.175 138.892 C 203.761 138.833,200.026 138.908,199.875 139.059 M306.000 147.808 L 306.000 156.816 314.300 156.708 L 322.600 156.600 322.635 154.498 L 322.670 152.395 322.514 154.398 L 322.358 156.400 314.379 156.400 L 306.400 156.400 306.400 147.808 L 306.400 139.217 314.500 139.100 L 322.600 138.982 314.300 138.891 L 306.000 138.800 306.000 147.808 M324.800 139.092 C 324.799 139.261,328.489 139.348,333.000 139.284 L 341.200 139.169 341.200 141.374 L 341.200 143.579 335.400 143.706 L 329.599 143.833 335.500 143.817 L 341.400 143.800 341.400 141.400 L 341.400 139.000 333.100 138.892 C 328.535 138.832,324.800 138.922,324.800 139.092 M343.600 144.392 C 343.600 149.955,343.607 150.000,344.500 149.954 C 345.177 149.919,345.227 149.862,344.700 149.724 C 344.079 149.562,344.000 148.959,344.000 144.371 L 344.000 139.200 352.000 139.200 L 360.000 139.200 360.000 141.389 L 360.000 143.578 354.300 143.689 C 348.695 143.798,348.599 143.815,348.547 144.706 C 348.504 145.438,348.528 145.460,348.673 144.817 C 348.841 144.076,349.238 144.014,354.526 143.911 L 360.200 143.800 360.200 141.400 L 360.200 139.000 351.900 138.892 L 343.600 138.784 343.600 144.392 M322.509 141.200 C 322.509 142.190,322.587 142.595,322.682 142.100 C 322.778 141.605,322.778 140.795,322.682 140.300 C 322.587 139.805,322.509 140.210,322.509 141.200 M75.149 141.800 C 75.365 142.240,75.834 142.960,76.193 143.400 L 76.844 144.200 76.451 143.400 C 76.235 142.960,75.766 142.240,75.407 141.800 L 74.756 141.000 75.149 141.800 M79.302 142.500 C 78.736 143.215,77.940 144.800,78.146 144.800 C 78.242 144.800,78.693 144.170,79.147 143.400 C 79.973 142.001,80.049 141.557,79.302 142.500 M197.354 147.600 C 197.354 150.350,197.418 151.475,197.496 150.100 C 197.574 148.725,197.574 146.475,197.496 145.100 C 197.418 143.725,197.354 144.850,197.354 147.600 M324.881 146.300 C 324.809 149.590,324.878 149.999,325.500 149.994 C 325.978 149.990,326.047 149.891,325.718 149.681 C 325.423 149.494,325.182 148.057,325.099 145.987 L 324.963 142.600 324.881 146.300 M310.800 147.800 L 310.800 152.000 316.700 151.912 L 322.600 151.824 316.900 151.701 L 311.200 151.578 311.200 147.800 L 311.200 144.022 316.900 143.899 L 322.600 143.776 316.700 143.688 L 310.800 143.600 310.800 147.800 M54.088 150.718 L 54.000 156.835 56.900 156.718 L 59.800 156.600 60.000 150.737 C 60.110 147.513,60.065 144.958,59.900 145.061 C 59.735 145.163,59.600 147.757,59.600 150.824 L 59.600 156.400 57.011 156.400 L 54.421 156.400 54.299 150.500 L 54.177 144.600 54.088 150.718 M215.922 150.999 L 216.043 156.400 208.022 156.400 L 200.000 156.400 200.000 154.211 L 200.000 152.022 205.700 151.911 C 211.081 151.806,211.402 151.755,211.439 151.000 C 211.469 150.391,211.439 150.367,211.311 150.900 C 211.162 151.527,210.538 151.600,205.353 151.600 L 199.562 151.600 199.681 154.100 L 199.800 156.600 208.000 156.600 L 216.200 156.600 216.311 151.100 C 216.372 148.075,216.282 145.600,216.111 145.599 C 215.940 145.599,215.855 148.029,215.922 150.999 M341.122 151.015 L 341.244 156.432 333.021 156.316 C 328.499 156.252,324.799 156.339,324.800 156.508 C 324.800 156.678,328.535 156.768,333.100 156.708 L 341.400 156.600 341.511 151.100 C 341.572 148.075,341.482 145.600,341.311 145.599 C 341.140 145.599,341.055 148.036,341.122 151.015 M360.086 151.100 L 360.000 156.400 352.000 156.400 L 344.000 156.400 344.000 154.211 L 344.000 152.022 349.695 151.911 C 355.534 151.797,356.732 151.372,355.287 149.927 C 355.037 149.677,354.968 149.900,355.094 150.558 L 355.289 151.577 349.544 151.689 L 343.800 151.800 343.681 154.300 L 343.562 156.800 351.793 156.800 C 358.196 156.800,360.070 156.684,360.225 156.278 C 360.336 155.991,360.369 153.516,360.299 150.778 L 360.173 145.800 360.086 151.100 M203.516 149.897 C 204.899 149.975,207.059 149.974,208.316 149.895 C 209.572 149.816,208.440 149.752,205.800 149.753 C 203.160 149.753,202.132 149.818,203.516 149.897 M336.432 150.700 C 336.400 151.591,336.339 151.600,330.600 151.600 C 327.410 151.600,324.800 151.735,324.799 151.900 C 324.799 152.065,327.418 152.146,330.620 152.079 C 336.569 151.956,337.249 151.757,336.669 150.313 C 336.556 150.031,336.449 150.205,336.432 150.700 M76.123 152.500 C 77.342 154.565,77.788 154.614,78.860 152.800 L 79.687 151.400 78.852 152.400 C 78.393 152.950,78.014 153.535,78.009 153.700 C 77.986 154.457,77.268 153.859,76.448 152.400 C 75.953 151.520,75.452 150.800,75.334 150.800 C 75.216 150.800,75.571 151.565,76.123 152.500 M20.554 164.977 C 20.432 165.294,20.417 165.879,20.520 166.277 C 20.643 166.751,20.723 166.621,20.754 165.902 L 20.800 164.803 67.100 164.700 L 113.400 164.597 67.087 164.498 C 27.061 164.413,20.745 164.478,20.554 164.977 M287.260 165.700 C 287.316 166.910,287.331 166.924,287.487 165.900 L 287.653 164.800 333.602 164.800 L 379.552 164.800 379.709 166.300 L 379.866 167.800 379.933 166.100 L 380.000 164.400 333.600 164.400 L 287.200 164.400 287.260 165.700 M287.701 170.600 C 287.705 171.480,287.787 171.793,287.883 171.295 C 287.979 170.798,287.975 170.078,287.875 169.695 C 287.775 169.313,287.696 169.720,287.701 170.600 M379.198 170.433 C 379.197 170.965,378.930 174.280,378.603 177.800 C 377.996 184.348,377.876 186.661,378.161 186.367 C 378.454 186.064,379.695 169.962,379.445 169.712 C 379.310 169.577,379.199 169.902,379.198 170.433 M288.046 173.469 C 287.981 175.253,289.177 189.710,289.409 189.942 C 289.697 190.231,289.653 189.296,288.987 181.019 C 288.351 173.115,288.125 171.307,288.046 173.469 M81.172 183.897 C 93.561 183.994,95.569 184.093,95.731 184.613 C 95.860 185.026,95.898 184.993,95.854 184.508 C 95.793 183.845,94.866 183.800,81.295 183.792 L 66.800 183.785 81.172 183.897 M304.584 184.027 C 304.439 184.261,304.428 184.561,304.560 184.693 C 304.692 184.825,304.800 184.723,304.800 184.467 C 304.800 184.115,311.917 184.000,333.573 184.000 L 362.347 184.000 362.513 185.100 C 362.669 186.124,362.684 186.110,362.740 184.900 L 362.800 183.600 333.824 183.600 C 313.732 183.600,304.766 183.731,304.584 184.027 M304.901 188.200 C 304.905 189.080,304.987 189.393,305.083 188.895 C 305.179 188.398,305.175 187.678,305.075 187.295 C 304.975 186.913,304.896 187.320,304.901 188.200 M377.714 189.000 C 377.717 190.100,377.795 190.503,377.887 189.895 C 377.979 189.286,377.977 188.386,377.882 187.895 C 377.787 187.403,377.711 187.900,377.714 189.000 M362.109 189.600 C 362.109 190.590,362.187 190.995,362.282 190.500 C 362.378 190.005,362.378 189.195,362.282 188.700 C 362.187 188.205,362.109 188.610,362.109 189.600 M38.493 190.400 C 38.493 191.170,38.575 191.485,38.676 191.100 C 38.776 190.715,38.776 190.085,38.676 189.700 C 38.575 189.315,38.493 189.630,38.493 190.400 M110.901 191.400 C 110.905 192.280,110.987 192.593,111.083 192.095 C 111.179 191.598,111.175 190.878,111.075 190.495 C 110.975 190.113,110.896 190.520,110.901 191.400 M305.228 192.433 C 305.244 193.405,305.414 194.560,305.608 195.000 C 305.831 195.508,305.874 194.924,305.724 193.400 C 305.440 190.499,305.190 190.012,305.228 192.433 M289.701 193.000 C 289.705 193.880,289.787 194.193,289.883 193.695 C 289.979 193.198,289.975 192.478,289.875 192.095 C 289.775 191.713,289.696 192.120,289.701 193.000 M361.522 193.500 L 361.400 195.400 350.218 201.047 C 344.067 204.153,338.967 206.898,338.884 207.147 C 338.774 207.477,341.682 207.600,349.583 207.600 L 360.433 207.600 360.236 210.700 L 360.039 213.800 360.441 210.845 C 361.038 206.458,361.916 206.803,350.113 206.778 L 339.800 206.757 350.900 201.177 L 362.000 195.597 362.000 193.599 C 362.000 191.062,361.683 190.996,361.522 193.500 M377.301 194.200 C 377.305 195.080,377.387 195.393,377.483 194.895 C 377.579 194.398,377.575 193.678,377.475 193.295 C 377.375 192.913,377.296 193.320,377.301 194.200 M51.293 196.800 C 51.293 197.570,51.375 197.885,51.476 197.500 C 51.576 197.115,51.576 196.485,51.476 196.100 C 51.375 195.715,51.293 196.030,51.293 196.800 M326.662 196.447 C 325.816 196.893,325.206 197.339,325.305 197.438 C 325.404 197.538,326.276 197.167,327.243 196.614 C 329.334 195.419,328.867 195.284,326.662 196.447 M290.101 197.800 C 290.105 198.680,290.187 198.993,290.283 198.495 C 290.379 197.998,290.375 197.278,290.275 196.895 C 290.175 196.513,290.096 196.920,290.101 197.800 M376.909 198.800 C 376.909 199.790,376.987 200.195,377.082 199.700 C 377.178 199.205,377.178 198.395,377.082 197.900 C 376.987 197.405,376.909 197.810,376.909 198.800 M321.100 199.227 C 320.275 199.663,319.600 200.107,319.600 200.215 C 319.600 200.484,322.510 199.248,322.980 198.779 C 323.603 198.158,322.733 198.365,321.100 199.227 M23.701 202.200 C 23.705 203.080,23.787 203.393,23.883 202.895 C 23.979 202.398,23.975 201.678,23.875 201.295 C 23.775 200.913,23.696 201.320,23.701 202.200 M316.300 201.627 C 314.747 202.447,314.273 202.972,315.500 202.513 C 316.558 202.117,318.656 200.801,318.200 200.819 C 317.980 200.828,317.125 201.192,316.300 201.627 M290.543 204.200 C 291.174 212.128,291.736 217.597,291.903 217.430 C 292.145 217.188,290.795 201.457,290.510 201.200 C 290.388 201.090,290.403 202.440,290.543 204.200 M376.051 207.095 C 375.292 216.584,375.152 219.524,375.588 216.800 C 376.056 213.876,376.948 201.615,376.710 201.377 C 376.607 201.274,376.311 203.847,376.051 207.095 M311.700 203.989 C 310.765 204.414,310.000 204.862,310.000 204.986 C 310.000 205.276,312.881 204.077,313.380 203.579 C 313.918 203.042,313.632 203.112,311.700 203.989 M307.600 206.116 C 307.050 206.393,306.582 206.976,306.561 207.410 C 306.530 208.024,306.559 208.044,306.689 207.500 C 306.780 207.115,306.989 206.800,307.151 206.800 C 307.482 206.800,309.115 205.629,308.800 205.619 C 308.690 205.615,308.150 205.839,307.600 206.116 M59.500 207.496 C 60.875 207.574,63.125 207.574,64.500 207.496 C 65.875 207.418,64.750 207.354,62.000 207.354 C 59.250 207.354,58.125 207.418,59.500 207.496 M78.915 207.496 C 80.188 207.576,82.168 207.575,83.315 207.494 C 84.462 207.414,83.420 207.349,81.000 207.350 C 78.580 207.351,77.642 207.416,78.915 207.496 M306.909 210.800 C 306.909 211.790,306.987 212.195,307.082 211.700 C 307.178 211.205,307.178 210.395,307.082 209.900 C 306.987 209.405,306.909 209.810,306.909 210.800 M108.893 214.800 C 108.893 215.570,108.975 215.885,109.076 215.500 C 109.176 215.115,109.176 214.485,109.076 214.100 C 108.975 213.715,108.893 214.030,108.893 214.800 M307.293 215.600 C 307.293 216.370,307.375 216.685,307.476 216.300 C 307.576 215.915,307.576 215.285,307.476 214.900 C 307.375 214.515,307.293 214.830,307.293 215.600 M359.714 216.600 C 359.717 217.700,359.795 218.103,359.887 217.495 C 359.979 216.886,359.977 215.986,359.882 215.495 C 359.787 215.003,359.711 215.500,359.714 216.600 M327.276 219.100 L 347.152 219.207 347.309 220.704 L 347.466 222.200 347.533 220.500 L 347.600 218.800 327.500 218.896 L 307.400 218.992 327.276 219.100 M292.109 220.800 C 292.109 221.790,292.187 222.195,292.282 221.700 C 292.378 221.205,292.378 220.395,292.282 219.900 C 292.187 219.405,292.109 219.810,292.109 220.800 M374.901 221.400 C 374.905 222.280,374.987 222.593,375.083 222.095 C 375.179 221.598,375.175 220.878,375.075 220.495 C 374.975 220.113,374.896 220.520,374.901 221.400 M359.309 222.000 C 359.309 222.990,359.387 223.395,359.482 222.900 C 359.578 222.405,359.578 221.595,359.482 221.100 C 359.387 220.605,359.309 221.010,359.309 222.000 M346.659 226.653 C 346.517 228.340,346.397 230.369,346.394 231.160 C 346.385 233.252,346.065 233.535,342.653 234.462 C 340.956 234.923,339.645 235.378,339.739 235.473 C 339.949 235.683,344.460 234.538,345.763 233.944 C 346.646 233.542,346.719 233.232,346.988 228.728 C 347.306 223.395,347.064 221.866,346.659 226.653 M25.693 225.600 C 25.693 226.370,25.775 226.685,25.876 226.300 C 25.976 225.915,25.976 225.285,25.876 224.900 C 25.775 224.515,25.693 224.830,25.693 225.600 M47.183 224.694 C 51.152 224.782,53.076 224.976,53.314 225.311 C 53.564 225.663,53.615 225.632,53.498 225.200 C 53.362 224.702,52.322 224.597,47.367 224.582 L 41.400 224.565 47.183 224.694 M292.509 226.000 C 292.509 226.990,292.587 227.395,292.682 226.900 C 292.778 226.405,292.778 225.595,292.682 225.100 C 292.587 224.605,292.509 225.010,292.509 226.000 M308.210 227.500 C 308.861 235.109,309.153 236.800,308.954 231.800 C 308.849 229.160,308.667 226.505,308.550 225.900 L 308.336 224.800 314.142 224.800 L 319.947 224.800 320.113 225.900 C 320.269 226.924,320.284 226.910,320.340 225.700 L 320.400 224.400 314.173 224.400 L 307.945 224.400 308.210 227.500 M358.499 229.600 C 357.648 238.939,357.485 241.407,357.733 241.180 C 358.042 240.897,359.306 226.345,359.126 225.125 C 359.052 224.616,358.769 226.630,358.499 229.600 M374.501 226.600 C 374.505 227.480,374.587 227.793,374.683 227.295 C 374.779 226.798,374.775 226.078,374.675 225.695 C 374.575 225.313,374.496 225.720,374.501 226.600 M292.914 230.200 C 292.917 231.300,292.995 231.703,293.087 231.095 C 293.179 230.486,293.177 229.586,293.082 229.095 C 292.987 228.603,292.911 229.100,292.914 230.200 M53.709 230.400 C 53.709 231.390,53.787 231.795,53.882 231.300 C 53.978 230.805,53.978 229.995,53.882 229.500 C 53.787 229.005,53.709 229.410,53.709 230.400 M320.556 231.200 L 320.600 233.800 322.000 234.251 C 324.733 235.133,326.157 235.169,323.600 234.292 L 321.000 233.400 320.756 231.000 L 320.513 228.600 320.556 231.200 M373.671 234.620 C 372.916 243.459,372.673 247.416,372.896 247.200 C 373.182 246.923,374.531 230.194,374.319 229.556 C 374.224 229.273,373.932 231.551,373.671 234.620 M293.258 234.000 C 293.239 234.990,293.484 238.680,293.803 242.200 C 294.122 245.720,294.387 248.855,294.391 249.167 C 294.396 249.478,294.495 249.638,294.611 249.522 C 294.811 249.322,293.740 234.069,293.436 232.800 C 293.357 232.470,293.277 233.010,293.258 234.000 M91.293 235.200 C 91.293 235.970,91.375 236.285,91.476 235.900 C 91.576 235.515,91.576 234.885,91.476 234.500 C 91.375 234.115,91.293 234.430,91.293 235.200 M331.000 236.618 C 332.691 237.284,336.055 237.144,337.203 236.359 C 337.626 236.071,337.391 236.045,336.400 236.270 C 334.679 236.662,332.199 236.666,330.600 236.279 C 329.813 236.088,329.950 236.205,331.000 236.618 M309.301 238.200 C 309.305 239.080,309.387 239.393,309.483 238.895 C 309.579 238.398,309.575 237.678,309.475 237.295 C 309.375 236.913,309.296 237.320,309.301 238.200 M309.612 241.669 C 309.600 242.317,312.209 243.524,312.655 243.078 C 312.766 242.967,312.305 242.755,311.631 242.607 C 310.957 242.459,310.229 242.037,310.015 241.669 C 309.650 241.044,309.624 241.044,309.612 241.669 M349.610 244.244 C 346.076 245.289,344.788 245.906,347.200 245.400 C 349.254 244.968,354.300 243.282,353.600 243.261 C 353.270 243.251,351.475 243.693,349.610 244.244 M316.014 244.151 C 316.792 244.452,318.052 244.811,318.814 244.948 L 320.200 245.198 318.786 244.649 C 318.008 244.348,316.748 243.989,315.986 243.852 L 314.600 243.602 316.014 244.151 M323.233 246.164 C 323.325 246.255,324.570 246.624,326.000 246.985 C 330.514 248.126,330.265 248.080,329.587 247.648 C 328.739 247.108,322.779 245.716,323.233 246.164 M340.800 246.817 C 339.590 247.239,339.140 247.488,339.800 247.370 C 341.730 247.025,344.000 246.384,344.000 246.185 C 344.000 245.848,343.024 246.040,340.800 246.817 M372.501 249.000 C 372.505 249.880,372.587 250.193,372.683 249.695 C 372.779 249.198,372.775 248.478,372.675 248.095 C 372.575 247.713,372.496 248.120,372.501 249.000 M333.034 248.923 C 333.422 249.140,334.009 249.140,334.495 248.923 C 335.166 248.624,335.052 248.560,333.847 248.560 C 332.762 248.560,332.553 248.654,333.034 248.923 M105.701 251.400 C 105.705 252.280,105.787 252.593,105.883 252.095 C 105.979 251.598,105.975 250.878,105.875 250.495 C 105.775 250.113,105.696 250.520,105.701 251.400 M294.893 253.200 C 294.893 253.970,294.975 254.285,295.076 253.900 C 295.176 253.515,295.176 252.885,295.076 252.500 C 294.975 252.115,294.893 252.430,294.893 253.200 M372.101 254.200 C 372.105 255.080,372.187 255.393,372.283 254.895 C 372.379 254.398,372.375 253.678,372.275 253.295 C 372.175 252.913,372.096 253.320,372.101 254.200 M28.400 257.376 C 28.400 257.913,28.547 258.444,28.728 258.555 C 28.908 258.667,28.977 258.227,28.882 257.579 C 28.672 256.149,28.400 256.035,28.400 257.376 M295.247 257.485 C 295.196 258.879,294.790 258.666,300.140 260.053 C 300.988 260.273,301.760 260.373,301.858 260.275 C 301.955 260.178,300.632 259.752,298.918 259.329 C 296.031 258.617,295.782 258.473,295.548 257.380 L 295.295 256.200 295.247 257.485 M371.546 257.800 C 371.379 258.405,370.620 258.781,368.435 259.340 C 366.846 259.746,365.633 260.166,365.739 260.272 C 365.936 260.469,371.547 258.986,371.885 258.648 C 371.987 258.546,372.003 258.134,371.919 257.731 C 371.780 257.060,371.749 257.066,371.546 257.800 M306.414 261.751 C 307.192 262.052,308.452 262.411,309.214 262.548 L 310.600 262.798 309.186 262.249 C 308.408 261.948,307.148 261.589,306.386 261.452 L 305.000 261.202 306.414 261.751 M358.800 262.010 C 357.335 262.517,357.063 262.692,357.986 262.535 C 359.649 262.252,362.450 261.258,361.600 261.253 C 361.270 261.251,360.010 261.591,358.800 262.010 M314.800 264.142 C 315.570 264.438,316.920 264.788,317.800 264.919 L 319.400 265.157 317.791 264.630 C 316.907 264.341,315.557 263.991,314.791 263.853 L 313.400 263.602 314.800 264.142 M349.695 264.497 C 348.097 264.951,346.862 265.395,346.949 265.483 C 347.144 265.677,353.176 264.158,353.501 263.832 C 353.901 263.432,352.703 263.641,349.695 264.497 M322.400 266.110 C 322.400 266.389,328.831 268.102,329.051 267.882 C 329.149 267.784,328.097 267.413,326.714 267.057 C 325.331 266.701,323.795 266.296,323.300 266.158 C 322.805 266.020,322.400 265.998,322.400 266.110 M341.281 266.879 C 339.676 267.328,338.441 267.774,338.537 267.870 C 338.753 268.087,343.578 266.857,344.400 266.376 C 345.302 265.848,344.508 265.976,341.281 266.879 M333.800 268.800 L 332.200 269.086 333.600 269.115 C 334.370 269.131,335.360 268.989,335.800 268.800 C 336.743 268.395,336.062 268.395,333.800 268.800 " stroke="none" fill="#94acbc" fill-rule="evenodd"></path></g></svg>